<svg width="15" height="15" viewBox="0 0 15 15" fill="none" xmlns="http://www.w3.org/2000/svg">
<path d="M4.64517 2.58614L3.34354 3.90326L2.90966 3.46939C2.7857 3.34542 2.59975 3.34542 2.47579 3.46939C2.35182 3.59335 2.35182 3.7793 2.47579 3.90326L3.1266 4.56957C3.18858 4.63156 3.26606 4.66255 3.34354 4.66255C3.42102 4.66255 3.4985 4.63156 3.56048 4.56957L5.07905 3.02001C5.20301 2.89605 5.20301 2.69461 5.07905 2.58614C4.95508 2.46217 4.76913 2.46217 4.64517 2.58614Z" fill="#29ABE2"/>
<path d="M4.64517 10.6438L3.34354 11.9609L2.90966 11.527C2.7857 11.403 2.59975 11.403 2.47579 11.527C2.35182 11.651 2.35182 11.8369 2.47579 11.9609L3.1266 12.6272C3.18858 12.6892 3.26606 12.7202 3.34354 12.7202C3.42102 12.7202 3.4985 12.6892 3.56048 12.6272L5.07905 11.0776C5.20301 10.9537 5.20301 10.7522 5.07905 10.6438C4.95508 10.5198 4.76913 10.5198 4.64517 10.6438Z" fill="#29ABE2"/>
<path d="M6.41538 3.11299H10.4442C10.6147 3.11299 10.7541 2.97353 10.7541 2.80308C10.7541 2.63262 10.6147 2.49316 10.4442 2.49316H6.41538C6.24493 2.49316 6.10547 2.63262 6.10547 2.80308C6.10547 2.97353 6.24493 3.11299 6.41538 3.11299Z" fill="#29ABE2"/>
<path d="M6.41538 4.66279H10.4442C10.6147 4.66279 10.7541 4.52333 10.7541 4.35288C10.7541 4.18243 10.6147 4.04297 10.4442 4.04297H6.41538C6.24493 4.04297 6.10547 4.18243 6.10547 4.35288C6.10547 4.52333 6.24493 4.66279 6.41538 4.66279Z" fill="#29ABE2"/>
<path d="M4.24228 6.2124H3.31255C2.80119 6.2124 2.38281 6.63078 2.38281 7.14214V8.07187C2.38281 8.58323 2.80119 9.00161 3.31255 9.00161H4.24228C4.75364 9.00161 5.17202 8.58323 5.17202 8.07187V7.14214C5.17202 6.63078 4.75364 6.2124 4.24228 6.2124ZM4.5522 8.07187C4.5522 8.24233 4.41274 8.38179 4.24228 8.38179H3.31255C3.1421 8.38179 3.00264 8.24233 3.00264 8.07187V7.14214C3.00264 6.97169 3.1421 6.83223 3.31255 6.83223H4.24228C4.41274 6.83223 4.5522 6.97169 4.5522 7.14214V8.07187Z" fill="#29ABE2"/>
<path d="M13.8832 12.116L13.2479 11.4807L13.2324 11.4652L13.2169 11.4497L12.3027 10.5355V1.56352C12.3027 1.05217 11.8843 0.633789 11.3729 0.633789H1.76567C1.25432 0.633789 0.835938 1.05217 0.835938 1.56352V13.6501C0.835938 14.1614 1.25432 14.5798 1.76567 14.5798H11.3729C11.5589 14.5798 11.7138 14.5333 11.8688 14.4404C12.0238 14.5333 12.1787 14.5798 12.3492 14.5798C12.5816 14.5798 12.8295 14.4869 13 14.3009L13.8832 13.4177C14.2551 13.0613 14.2551 12.4724 13.8832 12.116ZM12.5816 11.6822L12.1477 12.116L8.0104 7.9787L8.44428 7.54483L12.5816 11.6822ZM1.76567 13.96C1.59522 13.96 1.45576 13.8205 1.45576 13.6501V1.56352C1.45576 1.39307 1.59522 1.25361 1.76567 1.25361H11.3729C11.5434 1.25361 11.6829 1.39307 11.6829 1.56352V9.90016L8.63022 6.84752C8.58374 6.80104 8.52175 6.77005 8.44428 6.75455L6.56931 6.55311L6.32138 6.30518C6.19741 6.18121 6.01147 6.18121 5.8875 6.30518C5.76354 6.42914 5.76354 6.61509 5.8875 6.73906L6.15093 6.98698L6.35237 8.84646C6.35237 8.92393 6.39886 8.98592 6.44534 9.0324L7.94842 10.551H6.41435C6.2439 10.551 6.10444 10.6904 6.10444 10.8609C6.10444 11.0313 6.2439 11.1708 6.41435 11.1708H8.56824L9.49798 12.1005H6.41435C6.2439 12.1005 6.10444 12.24 6.10444 12.4104C6.10444 12.5809 6.2439 12.7204 6.41435 12.7204H10.1178L11.3574 13.96H1.76567ZM7.79346 7.31239L6.89472 8.21114L6.78625 7.20392L7.79346 7.31239ZM11.2645 12.9838L7.12715 8.84646L7.56103 8.41258L11.6984 12.5499L11.2645 12.9838ZM13.4494 12.9993L12.5661 13.867C12.4421 13.991 12.2562 13.991 12.1322 13.867L11.6984 13.4332L13.0155 12.116L13.4494 12.5499C13.5733 12.6739 13.5733 12.8753 13.4494 12.9993Z" fill="#29ABE2"/>
</svg>
