<svg width="15" height="16" viewBox="0 0 15 16" fill="none" xmlns="http://www.w3.org/2000/svg">
<path d="M7.5 7.00843C7.05499 7.00843 6.61997 6.87647 6.24996 6.62924C5.87995 6.38201 5.59156 6.0306 5.42127 5.61947C5.25097 5.20834 5.20641 4.75594 5.29323 4.31948C5.38004 3.88302 5.59434 3.48211 5.90901 3.16744C6.22367 2.85278 6.62458 2.63848 7.06104 2.55167C7.4975 2.46485 7.9499 2.50941 8.36103 2.6797C8.77217 2.85 9.12357 3.13839 9.3708 3.5084C9.61804 3.87841 9.75 4.31343 9.75 4.75843C9.75 5.35517 9.51294 5.92747 9.09099 6.34942C8.66903 6.77138 8.09673 7.00843 7.5 7.00843ZM7.5 3.50843C7.25277 3.50843 7.01109 3.58174 6.80553 3.7191C6.59997 3.85645 6.43976 4.05167 6.34515 4.28008C6.25054 4.50849 6.22578 4.75982 6.27401 5.0023C6.32224 5.24477 6.4413 5.4675 6.61611 5.64232C6.79093 5.81713 7.01366 5.93618 7.25613 5.98442C7.49861 6.03265 7.74994 6.00789 7.97835 5.91328C8.20676 5.81867 8.40198 5.65846 8.53933 5.4529C8.67668 5.24733 8.75 5.00566 8.75 4.75843C8.75 4.42691 8.6183 4.10897 8.38388 3.87455C8.14946 3.64013 7.83152 3.50843 7.5 3.50843ZM1.77999 12.3509C0.998851 11.4298 0.451698 10.3337 0.185063 9.15581C-0.0815716 7.97789 -0.0598001 6.753 0.248525 5.58529C0.556849 4.41759 1.14261 3.34161 1.95599 2.44886C2.76938 1.55611 3.78632 0.872996 4.92036 0.457597C6.0544 0.0421985 7.27198 -0.0931929 8.46957 0.0629361C9.66716 0.219065 10.8093 0.662096 11.799 1.35436C12.7886 2.04662 13.5964 2.96763 14.1537 4.03908C14.711 5.11052 15.0014 6.30071 15 7.50843C15.0017 9.28297 14.3706 11 13.22 12.3509C13.1986 12.383 13.1734 12.4124 13.145 12.4384C12.4424 13.2458 11.5748 13.893 10.6008 14.3366C9.6268 14.7802 8.569 15.0097 7.49874 15.0097C6.42849 15.0097 5.37069 14.7802 4.39667 14.3366C3.42266 13.893 2.5551 13.2458 1.8525 12.4384C1.82424 12.4129 1.79982 12.3834 1.77999 12.3509ZM7.5 1.00843C6.33273 1.00906 5.18717 1.32401 4.18363 1.92019C3.1801 2.51637 2.35562 3.37178 1.7968 4.39659C1.23797 5.4214 0.965425 6.57778 1.00778 7.74428C1.05013 8.91078 1.40582 10.0444 2.0375 11.0259C2.51414 9.97699 3.28271 9.08746 4.25138 8.46364C5.22004 7.83982 6.34784 7.50809 7.5 7.50809C8.65215 7.50809 9.77995 7.83982 10.7486 8.46364C11.7173 9.08746 12.4859 9.97699 12.9625 11.0259C13.5942 10.0444 13.9499 8.91078 13.9922 7.74428C14.0346 6.57778 13.762 5.4214 13.2032 4.39659C12.6444 3.37178 11.8199 2.51637 10.8164 1.92019C9.81282 1.32401 8.66726 1.00906 7.5 1.00843ZM7.5 14.0084C8.39123 14.0097 9.27313 13.8269 10.0905 13.4716C10.9078 13.1162 11.643 12.596 12.25 11.9434C11.9212 10.9431 11.285 10.0721 10.432 9.45461C9.5791 8.83712 8.55299 8.50468 7.5 8.50468C6.447 8.50468 5.42089 8.83712 4.56795 9.45461C3.71501 10.0721 3.07879 10.9431 2.75 11.9434C3.357 12.596 4.09219 13.1162 4.90952 13.4716C5.72686 13.8269 6.60876 14.0097 7.5 14.0084Z" fill="#676767"/>
</svg>
