<svg width="22" height="17" viewBox="0 0 22 17" fill="none" xmlns="http://www.w3.org/2000/svg">
<path d="M21.1307 5.64121L10.8182 0.0412125C10.7168 -0.0137375 10.5961 -0.0137375 10.4947 0.0412125L0.182187 5.64121C0.0697812 5.70211 0 5.82076 0 5.94991C0 6.07906 0.0697813 6.19771 0.181844 6.25861L3.09375 7.83991V12.2499H3.78125V8.21336L4.8125 8.77336V10.8996C4.22091 11.0561 3.78125 11.5993 3.78125 12.2499C3.78125 12.5698 3.89125 12.8614 4.06931 13.0976C3.88163 13.7511 3.78125 14.4248 3.78125 15.1066V16.0999C3.78125 16.2326 3.85481 16.3537 3.97134 16.4132L4.35119 16.6067C4.60006 16.7331 4.87816 16.7999 5.15625 16.7999C5.43434 16.7999 5.71244 16.7331 5.96131 16.6064L6.34116 16.4128C6.45769 16.3537 6.53125 16.2326 6.53125 16.0999V15.1066C6.53125 14.4248 6.43088 13.7511 6.24319 13.0976C6.42125 12.8614 6.53125 12.5698 6.53125 12.2499C6.53125 11.5993 6.09159 11.0561 5.5 10.8996V9.14681L10.4943 11.859C10.5452 11.8863 10.6006 11.8999 10.6562 11.8999C10.7119 11.8999 10.7673 11.8863 10.8182 11.859L17.5312 8.21336V12.077C15.6193 13.5439 13.2577 14.3499 10.8622 14.3499H10.4507C9.27059 14.3499 8.10391 14.1592 6.98259 13.7829L6.76775 14.4479C7.95781 14.8473 9.19737 15.0499 10.4503 15.0499H10.8618C13.4654 15.0499 16.0308 14.1536 18.0861 12.5261C18.1696 12.4599 18.2188 12.3581 18.2188 12.2499V7.83991L21.1307 6.25861C21.2427 6.19771 21.3125 6.07906 21.3125 5.94991C21.3125 5.82076 21.2427 5.70211 21.1307 5.64121ZM5.84375 15.8836L5.65366 15.9802C5.346 16.1367 4.96616 16.1367 4.6585 15.9802L4.46875 15.8836V15.1066C4.46875 14.5806 4.53166 14.0594 4.65575 13.5505C4.81112 13.6128 4.97922 13.6499 5.15625 13.6499C5.33328 13.6499 5.50137 13.6128 5.65675 13.5505C5.78084 14.0594 5.84375 14.5806 5.84375 15.1066V15.8836ZM5.84375 12.2499C5.84375 12.636 5.53541 12.9499 5.15625 12.9499C4.77709 12.9499 4.46875 12.636 4.46875 12.2499C4.46875 11.8639 4.77709 11.5499 5.15625 11.5499C5.53541 11.5499 5.84375 11.8639 5.84375 12.2499ZM10.6562 11.153L5.7365 8.48146L9.99522 6.16901C10.1908 6.25021 10.4136 6.29991 10.6562 6.29991C11.4273 6.29991 12.0312 5.83861 12.0312 5.24991C12.0312 4.66121 11.4273 4.19991 10.6562 4.19991C9.88522 4.19991 9.28125 4.66121 9.28125 5.24991C9.28125 5.40986 9.32903 5.55896 9.40947 5.69371L5.00603 8.08491L1.07422 5.94991L10.6562 0.746463L20.2383 5.94991L10.6562 11.153ZM9.96875 5.24991C9.96875 5.10711 10.2365 4.89991 10.6562 4.89991C11.076 4.89991 11.3438 5.10711 11.3438 5.24991C11.3438 5.39271 11.076 5.59991 10.6562 5.59991C10.2365 5.59991 9.96875 5.39271 9.96875 5.24991Z" fill="#676767"/>
</svg>
