<svg width="15" height="17" viewBox="0 0 15 17" fill="none" xmlns="http://www.w3.org/2000/svg">
<path fill-rule="evenodd" clip-rule="evenodd" d="M7.23127 0.427439C7.18224 0.385627 7.12842 0.349985 7.07097 0.321289H7.00128C6.94159 0.349849 6.88544 0.38548 6.83401 0.427439C4.7362 2.24615 2.33173 4.08609 0.310582 5.91895C0.234968 5.98461 0.174076 6.06595 0.132001 6.1575C0.0899258 6.24905 0.067643 6.34868 0.0666504 6.44971V15.6494C0.0792285 15.8603 0.173523 16.0576 0.328928 16.1982C0.484333 16.3388 0.688213 16.4111 0.896017 16.3995H4.99407C4.89507 16.2672 4.84124 16.1057 4.84074 15.9396V10.2782C4.85511 10.0479 4.95826 9.83259 5.12784 9.67895C5.29742 9.5253 5.51978 9.44567 5.74677 9.4573H8.33941C8.5664 9.44567 8.78876 9.5253 8.95834 9.67895C9.12792 9.83259 9.23107 10.0479 9.24544 10.2782V15.9396C9.24444 16.1056 9.19067 16.267 9.09212 16.3995H13.1971C13.4045 16.4093 13.6074 16.3363 13.7624 16.1961C13.9173 16.0559 14.0122 15.8597 14.0265 15.6494V6.44971C14.0239 6.26304 13.9487 6.08499 13.8174 5.95434C13.5595 5.69958 9.09212 1.98431 7.23127 0.427439Z" fill="white"/>
</svg>
