<svg width="18" height="15" viewBox="0 0 18 15" fill="none" xmlns="http://www.w3.org/2000/svg">
<path d="M12.8162 10.9181C12.0558 12.1718 10.8862 13.1501 9.48842 13.7016C8.09061 14.2531 6.54245 14.3471 5.08341 13.969C3.62437 13.591 2.33574 12.7619 1.41685 11.6101C0.497957 10.4583 0 9.04788 0 7.59707C0 6.14627 0.497957 4.73588 1.41685 3.58406C2.33574 2.43225 3.62437 1.60319 5.08341 1.22511C6.54245 0.847041 8.09061 0.941023 9.48842 1.49252C10.8862 2.04402 12.0558 3.02231 12.8162 4.27607C12.8677 4.34397 12.9037 4.42147 12.922 4.50357C12.9403 4.58567 12.9404 4.67054 12.9223 4.75269C12.9043 4.83484 12.8685 4.91244 12.8173 4.98048C12.7661 5.04852 12.7005 5.10548 12.6249 5.14767C12.5493 5.18987 12.4653 5.21637 12.3784 5.22545C12.2914 5.23453 12.2035 5.226 12.1202 5.2004C12.0369 5.1748 11.9602 5.13271 11.8949 5.07684C11.8296 5.02097 11.7773 4.95258 11.7412 4.87607C11.1221 3.84661 10.1664 3.04203 9.02244 2.58712C7.87844 2.13222 6.61005 2.05241 5.41399 2.36007C4.21793 2.66774 3.16104 3.34568 2.40724 4.28876C1.65343 5.23184 1.24485 6.38735 1.24485 7.57607C1.24485 8.7648 1.65343 9.92031 2.40724 10.8634C3.16104 11.8065 4.21793 12.4844 5.41399 12.7921C6.61005 13.0997 7.87844 13.0199 9.02244 12.565C10.1664 12.1101 11.1221 11.3055 11.7412 10.2761C11.8258 10.1392 11.9635 10.0402 12.1241 10.0009C12.2846 9.96149 12.4549 9.98494 12.5975 10.0661C12.6724 10.1062 12.7378 10.1606 12.7898 10.2261C12.8418 10.2915 12.8793 10.3665 12.8998 10.4464C12.9203 10.5263 12.9235 10.6094 12.9091 10.6906C12.8947 10.7717 12.8631 10.8492 12.8162 10.9181ZM17.4975 7.60007V7.54007C17.504 7.49027 17.504 7.43988 17.4975 7.39007C17.501 7.37021 17.501 7.34993 17.4975 7.33007C17.4694 7.26375 17.4292 7.20279 17.3787 7.15007L14.8787 4.75007C14.7611 4.63709 14.6014 4.57362 14.435 4.57362C14.2686 4.57362 14.1089 4.63709 13.9912 4.75007C13.8736 4.86305 13.8074 5.01629 13.8074 5.17607C13.8074 5.33585 13.8736 5.48909 13.9912 5.60207L15.3662 7.00007H6.87249C6.70673 7.00007 6.54776 7.06329 6.43055 7.17581C6.31334 7.28833 6.24749 7.44094 6.24749 7.60007C6.24749 7.7592 6.31334 7.91182 6.43055 8.02434C6.54776 8.13686 6.70673 8.20007 6.87249 8.20007H15.3662L13.9287 9.57407C13.8702 9.62985 13.8237 9.69621 13.7919 9.76933C13.7602 9.84244 13.7439 9.92087 13.7439 10.0001C13.7439 10.0793 13.7602 10.1577 13.7919 10.2308C13.8237 10.3039 13.8702 10.3703 13.9287 10.4261C13.9868 10.4823 14.056 10.5269 14.1321 10.5574C14.2083 10.5879 14.29 10.6036 14.3725 10.6036C14.455 10.6036 14.5367 10.5879 14.6129 10.5574C14.689 10.5269 14.7581 10.4823 14.8162 10.4261L17.3162 8.02607C17.3686 7.97477 17.409 7.91343 17.435 7.84607C17.477 7.77042 17.4985 7.68581 17.4975 7.60007Z" fill="#EB0000"/>
</svg>
