<svg width="13" height="18" viewBox="0 0 13 18" fill="none" xmlns="http://www.w3.org/2000/svg">
<path d="M0.150893 13.5018C0.78135 12.4759 1.12018 11.2592 1.12264 10.0123V7.44173C1.12249 6.37994 1.42811 5.34663 1.99379 4.49636C2.55947 3.6461 3.3548 3.02458 4.26083 2.72478C4.26083 2.66052 4.26083 2.59625 4.26083 2.52556C4.26083 1.85574 4.49751 1.21335 4.9188 0.73972C5.34009 0.266085 5.91149 0 6.50729 0C7.10308 0 7.67448 0.266085 8.09577 0.73972C8.51707 1.21335 8.75375 1.85574 8.75375 2.52556C8.7568 2.59192 8.7568 2.65842 8.75375 2.72478C9.65431 3.03179 10.4428 3.65724 11.0019 4.50818C11.5611 5.35913 11.8612 6.39018 11.8576 7.44816V10.0187C11.868 11.2661 12.2148 12.4807 12.8522 13.5018C12.9382 13.6399 12.9888 13.8019 12.9983 13.9701C13.0079 14.1384 12.9761 14.3063 12.9065 14.4556C12.8368 14.6049 12.732 14.7297 12.6035 14.8165C12.475 14.9033 12.3277 14.9487 12.1777 14.9477H9.61117C9.49223 15.7786 9.11393 16.5347 8.5441 17.0805C7.97427 17.6263 7.25015 17.926 6.50157 17.926C5.75299 17.926 5.02887 17.6263 4.45904 17.0805C3.88921 16.5347 3.51091 15.7786 3.39197 14.9477H0.825403C0.675467 14.9487 0.528174 14.9033 0.399643 14.8165C0.271111 14.7297 0.166292 14.6049 0.096653 14.4556C0.0270147 14.3063 -0.00475979 14.1384 0.00480652 13.9701C0.0143728 13.8019 0.0649118 13.6399 0.150893 13.5018ZM7.64481 2.53199C7.64481 2.19111 7.52436 1.8642 7.30996 1.62316C7.09556 1.38213 6.80478 1.24672 6.50157 1.24672C6.19837 1.24672 5.90758 1.38213 5.69318 1.62316C5.47878 1.8642 5.35833 2.19111 5.35833 2.53199H7.64481ZM6.50157 16.7278C6.9593 16.7279 7.40375 16.5549 7.7635 16.2367C8.12324 15.9185 8.37738 15.4736 8.48509 14.9734H4.48376C4.59686 15.4766 4.85754 15.9221 5.22368 16.2381C5.58981 16.5541 6.04002 16.7221 6.50157 16.715V16.7278ZM6.50157 13.7396H11.6461C11.0633 12.6162 10.7575 11.3385 10.7601 10.038V7.46744C10.7632 6.49304 10.4226 5.55701 9.81293 4.8644C9.20329 4.17179 8.37432 3.77907 7.50762 3.77228H5.48981C4.6231 3.77398 3.79233 4.1618 3.17948 4.85079C2.56663 5.53979 2.22166 6.47378 2.22015 7.44816V10.0187C2.22282 11.3192 1.91698 12.5969 1.33414 13.7203L6.50157 13.7396Z" fill="#676767"/>
</svg>
