<svg width="16" height="19" viewBox="0 0 16 19" fill="none" xmlns="http://www.w3.org/2000/svg">
<path d="M15.0765 9.56845V2.90017C15.0765 2.66731 14.9706 2.45562 14.7801 2.28627C14.6108 2.13808 14.4202 2.07458 14.2085 2.07458H14.1239C13.8063 2.11691 13.4465 2.13808 13.1289 2.13808C10.1017 2.13808 8.133 0.254029 8.11183 0.23286C7.96365 0.0846764 7.75196 0 7.54027 0C7.32858 0 7.11688 0.0846764 6.9687 0.23286C6.9687 0.254029 5.02114 2.13808 1.95162 2.13808C1.63408 2.13808 1.2742 2.11691 0.956666 2.07458H0.87199C0.660298 2.07458 0.469776 2.13808 0.300423 2.28627C0.109901 2.45562 0.00405527 2.64614 0.00405527 2.90017V9.56845C-0.0171139 9.94949 -0.038283 12.3628 2.24798 14.7972C3.32761 15.9404 4.91529 17.0835 7.2439 18.0361C7.34974 18.0784 7.45559 18.0996 7.56144 18.0996C7.66728 18.0996 7.77313 18.0784 7.87897 18.0361C10.631 16.9141 12.3245 15.517 13.3829 14.1833C15.14 11.9606 15.0976 9.90716 15.0765 9.56845ZM7.54027 15.9827C4.80945 15.9827 2.58669 13.7811 2.58669 11.0291C2.58669 9.48377 3.28527 8.12895 4.38607 7.21868V4.89007C4.38607 3.13303 5.8044 1.73587 7.54027 1.73587C9.27614 1.73587 10.6945 3.1542 10.6945 4.89007V7.21868C11.7953 8.15012 12.4938 9.50494 12.4938 11.0291C12.4938 13.7811 10.2711 15.9827 7.54027 15.9827Z" fill="#676767"/>
</svg>
