<svg width="8" height="8" viewBox="0 0 8 8" fill="none" xmlns="http://www.w3.org/2000/svg">
<path d="M5.92235 2.51179V1.25595H6.41845L4 0L1.58141 1.25595H2.07751V2.51191H0V8H2.89932V5.48785H5.10068V7.99988H8V2.51179H5.92235ZM1.47678 3.19441H2.05815V3.70632H1.47678V3.19441ZM0.360441 3.19441H0.941815V3.70632H0.360441V3.19441ZM0.360441 4.01342H0.941815V4.52521H0.360441V4.01342ZM1.16275 7.31036H0.488277V6.71648H1.16275V7.31036ZM1.16275 6.1839H0.488277V5.59025H1.16275V6.1839ZM1.47678 4.01342H2.05815V4.52521H1.47678V4.01342ZM2.41859 7.31036H1.74412V6.71648H2.41859V7.31036ZM2.41859 6.1839H1.74412V5.59025H2.41859V6.1839ZM3.17435 4.52533H2.59298V4.01354H3.17435V4.52533ZM3.17435 3.70632H2.59298V3.19441H3.17435V3.70632ZM4.29069 4.52533H3.70918V4.01354H4.29069V4.52533ZM4.29069 3.70632H3.70918V3.19441H4.29069V3.70632ZM4 2.10906C3.69187 2.10906 3.44197 1.88901 3.44197 1.61758C3.44197 1.34615 3.69187 1.12622 4 1.12622C4.30826 1.12622 4.55817 1.34627 4.55817 1.61758C4.55803 1.88913 4.30813 2.10906 4 2.10906ZM5.40689 4.52533H4.82551V4.01354H5.40689V4.52533ZM5.40689 3.70632H4.82551V3.19441H5.40689V3.70632ZM6.25574 7.31036H5.58155V6.71648H6.25574V7.31036ZM6.25574 6.1839H5.58155V5.59025H6.25574V6.1839ZM6.52336 4.52533H5.94199V4.01354H6.52336V4.52533ZM6.52336 3.70632H5.94199V3.19441H6.52336V3.70632ZM7.51159 7.31036H6.83712V6.71648H7.51159V7.31036ZM7.51159 6.1839H6.83712V5.59025H7.51159V6.1839ZM7.63956 4.52533H7.05819V4.01354H7.63956V4.52533ZM7.63956 3.70632H7.05819V3.19441H7.63956V3.70632Z" fill="#29ABE2"/>
</svg>
